<?xml version="1.0" encoding="utf-8"?><svg viewBox="0 0 128 128" xmlns="http://www.w3.org/2000/svg" xmlns:xlink="http://www.w3.org/1999/xlink"><style>:root>svg{display:none}:root>svg:target{display:block}</style><svg viewBox="0 0 24 24" id="arrow" xmlns="http://www.w3.org/2000/svg"><path d="M3 9.737a.75.75 0 00.472.709l7.2 2.88 2.881 7.202a.75.75 0 00.697.472h.012a.75.75 0 00.693-.494l6-16.5a.75.75 0 00-.961-.962l-16.5 6A.75.75 0 003 9.738z"/></svg><svg viewBox="0 0 24 24" id="ball" xmlns="http://www.w3.org/2000/svg"><path d="M12 0C5.383 0 0 5.383 0 12s5.383 12 12 12 12-5.383 12-12S18.617 0 12 0zm7.936 5.533a10.19 10.19 0 012.313 6.386c-.337-.072-3.727-.758-7.136-.329a31.41 31.41 0 00-.9-2.013c3.787-1.55 5.506-3.75 5.723-4.044zM12 1.765c2.605 0 4.985.978 6.793 2.582-.184.263-1.728 2.337-5.37 3.704a54.249 54.249 0 00-3.826-6c.788-.19 1.592-.286 2.403-.286zm-4.359.975c.271.37 2.103 2.911 3.8 5.928-4.795 1.272-9.018 1.255-9.477 1.25A10.293 10.293 0 017.641 2.74zm-5.89 9.274c0-.103.003-.21.006-.314.447.009 5.414.072 10.534-1.46.295.574.574 1.157.831 1.74a9.275 9.275 0 00-.404.121c-5.287 1.713-8.1 6.372-8.333 6.767a10.215 10.215 0 01-2.634-6.854zM12 22.264c-2.371 0-4.555-.808-6.291-2.164.184-.378 2.258-4.385 8.04-6.401l.065-.023c1.44 3.738 2.034 6.874 2.187 7.774-1.265.54-2.626.817-4.001.814zm5.726-1.752c-.104-.623-.65-3.623-1.99-7.306 3.213-.514 6.034.329 6.383.438a10.256 10.256 0 01-4.393 6.868z"/></svg><svg viewBox="0 0 18 19" id="emojione_flag-for-indonesia" xmlns="http://www.w3.org/2000/svg"><path d="M8.944 17.938A8.426 8.426 0 0017.38 9.5H.506a8.426 8.426 0 008.438 8.438zM8.944 1.063A8.426 8.426 0 00.506 9.5h16.875a8.426 8.426 0 00-8.437-8.438z"/></svg><svg viewBox="0 0 24 24" id="facebook" xmlns="http://www.w3.org/2000/svg"><path fill-rule="evenodd" clip-rule="evenodd" d="M0 12.067C0 18.033 4.333 22.994 10 24v-8.667H7V12h3V9.333c0-3 1.933-4.666 4.667-4.666.866 0 1.8.133 2.666.266V8H15.8c-1.467 0-1.8.733-1.8 1.667V12h3.2l-.533 3.333H14V24c5.667-1.006 10-5.966 10-11.933C24 5.43 18.6 0 12 0S0 5.43 0 12.067z"/></svg><svg viewBox="0 0 24 24" id="git" xmlns="http://www.w3.org/2000/svg"><path fill-rule="evenodd" clip-rule="evenodd" d="M12 .296c-6.63 0-12 5.37-12 12 0 5.31 3.435 9.795 8.205 11.385.6.105.825-.255.825-.57 0-.285-.015-1.23-.015-2.235-3.015.555-3.795-.735-4.035-1.41-.135-.345-.72-1.41-1.23-1.695-.42-.225-1.02-.78-.015-.795.945-.015 1.62.87 1.845 1.23 1.08 1.815 2.805 1.305 3.495.99.105-.78.42-1.305.765-1.605-2.67-.3-5.46-1.335-5.46-5.925 0-1.305.465-2.385 1.23-3.225-.12-.3-.54-1.53.12-3.18 0 0 1.005-.315 3.3 1.23.96-.27 1.98-.405 3-.405s2.04.135 3 .405c2.295-1.56 3.3-1.23 3.3-1.23.66 1.65.24 2.88.12 3.18.765.84 1.23 1.905 1.23 3.225 0 4.605-2.805 5.625-5.475 5.925.435.375.81 1.095.81 2.22 0 1.605-.015 2.895-.015 3.3 0 .315.225.69.825.57A12.02 12.02 0 0024 12.296c0-6.63-5.37-12-12-12z"/></svg><svg viewBox="0 0 16 17" id="group_2" xmlns="http://www.w3.org/2000/svg"><path d="M4 5.3l4 4 4-4 1.6.8L8 11.7 2.4 6.1 4 5.3z"/></svg><svg viewBox="0 0 16 17" id="group_2_gray" xmlns="http://www.w3.org/2000/svg"><path d="M4 5.3l4 4 4-4 1.6.8L8 11.7 2.4 6.1 4 5.3z"/></svg><svg viewBox="0 0 44 44" id="icon_four" xmlns="http://www.w3.org/2000/svg"><path d="M12.833 14.667c-.916 0-2.75.55-2.75 2.75s1.834 2.75 2.75 2.75m-9.166 11v5.5a3.667 3.667 0 003.666 3.666H27.5M3.667 31.167V11a3.667 3.667 0 013.666-3.667h5.5M3.667 31.167c2.572-.43 6.668-.538 10.899.445M27.5 40.333H33a3.667 3.667 0 003.667-3.666v-11M27.5 40.333c-3.124-5.074-8.116-7.604-12.934-8.72m0 0c2.007-2.325 5.005-4.492 9.343-5.946m-5.576-7.334V9.167a1.833 1.833 0 011.834-1.834H22l3.667-3.666H33l3.667 3.666H38.5a1.833 1.833 0 011.833 1.834v9.166a1.833 1.833 0 01-1.833 1.834H20.167a1.833 1.833 0 01-1.834-1.834z"/><path d="M29.333 14.667a1.833 1.833 0 100-3.667 1.833 1.833 0 000 3.667z"/></svg><svg viewBox="0 0 44 40" id="icon_one" xmlns="http://www.w3.org/2000/svg"><g clip-path="url(#ia)"><path d="M42.35 0h-13.2c-.906 0-2.176.598-2.816 1.325L9.968 19.923a2.02 2.02 0 00-.482 1.326c0 .497.174.974.482 1.326l14.166 16.098c.31.35.73.547 1.167.547a1.56 1.56 0 001.167-.547l16.366-18.598c.642-.73 1.166-2.17 1.166-3.2v-15a2.017 2.017 0 00-.485-1.324A1.561 1.561 0 0042.35 0zM34.1 15a2.95 2.95 0 01-1.263-.286 3.307 3.307 0 01-1.07-.814 3.822 3.822 0 01-.716-1.217 4.2 4.2 0 01-.251-1.435c0-.493.086-.98.252-1.436a3.82 3.82 0 01.716-1.217c.306-.348.67-.624 1.07-.812.401-.189.83-.286 1.264-.286.876 0 1.715.396 2.334 1.1.619.704.967 1.658.966 2.653 0 .995-.348 1.949-.968 2.652C35.816 14.605 34.975 15 34.1 15z"/><path d="M4.4 21.25L23.1 0h-2.75c-.907 0-2.176.598-2.816 1.325L1.168 19.923a2.02 2.02 0 00-.482 1.326c0 .497.174.974.482 1.326l14.166 16.098c.31.35.73.547 1.167.547a1.56 1.56 0 001.167-.547l1.034-1.175-14.3-16.25-.002.002z"/></g><defs><clipPath id="ia"><path d="M0 0h44v40H0z"/></clipPath></defs></svg><svg viewBox="0 0 44 44" id="icon_three" xmlns="http://www.w3.org/2000/svg"><path d="M25.294 5.129a8.28 8.28 0 00-8.28 8.28c0 6.48 6.322 14.278 7.979 16.193a.512.512 0 00.72.05l.05-.05c1.634-1.922 7.813-9.713 7.813-16.193a8.28 8.28 0 00-8.282-8.28zm0 11.784a4.065 4.065 0 114.066-4.066v.01a4.064 4.064 0 01-4.066 4.056z"/><path d="M33.416 15.288l1.077-.073 4.465 22.008-9.28 1.648L15.09 37.33 5.042 38.871l2.711-22.593 8.24-1.063 1.182.059m-1.182-.06l-.588 22.15m14.273 1.507l-1.567-12.304"/></svg><svg viewBox="0 0 38 34" id="icon_two" xmlns="http://www.w3.org/2000/svg"><path fill-rule="evenodd" clip-rule="evenodd" d="M12.483.808A1.833 1.833 0 0114.32.694l10.18 5.09L34.68.694a1.833 1.833 0 012.653 1.64v22a1.833 1.833 0 01-.815 1.525l-11 7.333a1.834 1.834 0 01-1.837.114l-10.18-5.09-10.181 5.09a1.834 1.834 0 01-2.653-1.64v-22a1.833 1.833 0 01.816-1.525l11-7.333zM6.167 17a1.834 1.834 0 103.667 0 1.834 1.834 0 00-3.667 0v.002V17zm9.166 1.833A1.833 1.833 0 1117.167 17v.002a1.833 1.833 0 01-1.834 1.833v-.002zm8.63-6.798a1.833 1.833 0 10-2.592 2.593L23.74 17l-2.37 2.37a1.833 1.833 0 002.592 2.593l2.37-2.37 2.37 2.37a1.833 1.833 0 002.593-2.593L28.926 17l2.37-2.37a1.833 1.833 0 00-2.592-2.593l-2.37 2.37-2.371-2.37v-.002z"/></svg><svg viewBox="0 0 24 24" id="instagram" xmlns="http://www.w3.org/2000/svg"><path d="M11.993 24c-3.278 0-3.664-.017-4.944-.073a8.782 8.782 0 01-2.911-.599 6.157 6.157 0 01-3.505-3.501 8.76 8.76 0 01-.558-2.91C0 15.642 0 15.224 0 11.976 0 8.693.017 8.31.075 7.039a8.75 8.75 0 01.558-2.906A6.134 6.134 0 014.142.631a8.717 8.717 0 012.91-.56C8.325 0 8.743 0 11.993 0c3.305 0 3.685.017 4.944.072a8.751 8.751 0 012.919.559 6.15 6.15 0 013.508 3.502c.356.945.547 1.943.561 2.95C24 8.358 24 8.774 24 12.021s-.019 3.673-.075 4.933a8.768 8.768 0 01-.56 2.913 6.151 6.151 0 01-3.51 3.502 8.826 8.826 0 01-2.912.558c-1.273.073-1.69.073-4.95.073zm-.045-21.894c-3.26 0-3.598.016-4.87.074-.76.01-1.513.15-2.226.413a3.985 3.985 0 00-2.29 2.279 6.656 6.656 0 00-.414 2.244c-.07 1.29-.07 1.628-.07 4.86 0 3.194.012 3.58.07 4.862.012.759.152 1.51.415 2.223a3.985 3.985 0 002.29 2.276 6.564 6.564 0 002.224.414c1.29.075 1.63.075 4.871.075 3.269 0 3.607-.016 4.87-.075a6.62 6.62 0 002.225-.414 3.999 3.999 0 002.279-2.274c.266-.718.406-1.48.414-2.246h.015c.057-1.272.057-1.611.057-4.862 0-3.251-.015-3.593-.072-4.864a6.723 6.723 0 00-.415-2.22 3.99 3.99 0 00-2.278-2.278 6.592 6.592 0 00-2.226-.413c-1.288-.074-1.625-.074-4.869-.074zm.045 16.016A6.167 6.167 0 016.3 14.328a6.144 6.144 0 011.332-6.705 6.163 6.163 0 0110.519 4.346 6.156 6.156 0 01-1.805 4.347 6.174 6.174 0 01-4.352 1.806zm0-10.147A4.002 4.002 0 008.3 10.439a3.986 3.986 0 00.866 4.35 4 4 0 006.825-2.822 3.998 3.998 0 00-1.173-2.82 4.01 4.01 0 00-2.825-1.172zm6.397-.949a1.438 1.438 0 01-1.431-1.44A1.433 1.433 0 0118.4 4.157a1.438 1.438 0 011.432 1.44 1.434 1.434 0 01-1.442 1.429z"/></svg><svg viewBox="0 0 38 38" id="nav" xmlns="http://www.w3.org/2000/svg"><path d="M19 11.125a6.195 6.195 0 00-6.188 6.188 6.124 6.124 0 001.247 3.712s.169.222.196.254L19 26.875l4.747-5.599c.025-.03.194-.251.194-.251v-.002a6.123 6.123 0 001.247-3.71A6.195 6.195 0 0019 11.125zm0 8.438a2.25 2.25 0 110-4.5 2.25 2.25 0 010 4.5z"/></svg><svg viewBox="0 0 24 24" id="navigation_green" xmlns="http://www.w3.org/2000/svg"><path d="M12 1.5a8.26 8.26 0 00-8.25 8.25 8.167 8.167 0 001.662 4.95s.225.296.262.339L12 22.5l6.33-7.465.258-.335v-.002A8.164 8.164 0 0020.25 9.75 8.26 8.26 0 0012 1.5zm0 11.25a3 3 0 110-5.999 3 3 0 010 5.999z"/></svg><svg viewBox="0 0 48 48" id="service_icon_one" xmlns="http://www.w3.org/2000/svg"><path d="M34 40a4 4 0 11-8 0 4 4 0 018 0zm-20 0a4 4 0 11-8 0 4 4 0 018 0zM35.22 6c-1.32 0-2.34.4-3.22 1-1.36.82-2.24 2.18-3.06 3.14L11.42 30.7c-1.1 1.3-.18 3.3 1.52 3.3H28a4 4 0 004-4V12.76C33.16 11.4 33.86 10 35.22 10c1.54 0 2.78 1.32 2.78 3v1h4v-1c0-3.88-3-7-6.78-7zm-17.5.18A18.67 18.67 0 007.36 9.8l9.52 9.52 7.76-9.12c.54-.64 1.18-1.44 1.96-2.2a19.16 19.16 0 00-7.3-1.82c-.52-.02-1.06-.02-1.58 0z"/></svg><svg viewBox="0 0 48 48" id="services_icon_four" xmlns="http://www.w3.org/2000/svg"><path d="M41.932 1.5L30.703 7.313l-10.406-4.5-14.229.937L1.5 43.688l14.711-1.25L32.54 46.5l13.96-5.063L41.932 1.5zm-1.243 2.332l4.187 36.599L32.828 44.8l-.067-1.406 10.628-4.012-3.632-33.445-8.583 4.071-.059-1.22.279-.143 9.295-4.813zm-8.728 22.755c.167-.354.33-.852.408-1.549 0 0 .827.04 1.844 2.257 0 0 .444-.045.222-1.491 0 0 1.588-.64.732-3.453 0 0 1.332 1.834.89-.55 0 0 1.46-1.792-.285-2.983 0 0 .06-1.32 1.11-1.151 0 0 1.048-2.727.542.51 0 0 .03.641.697 1.364 0 0 .287-1.065-.222-2.212 0 0 1.05-1.964.953-3.665 0 0-3.399 1.26-7.181.884 0 0 .184-.704-.332-1.099l-.106-2.224.09-.043 7.488-3.55 3.366 31.006-9.472 3.577-.744-15.628zM30.583 13.39c-.391.557-1.475 2.271-.816 3.297 0 0-.32 2.223-.765-1.019 0 0-.729 1.913-1.714 1.486 0 0-.27 1.937-.891.64 0 0 .508.213.62-.383 0 0-1.432-1.534-2.288.785 0 0-.699.279-.428 1.366 0 0 .49-.897.745.469 0 0 .271-.213.384-1.962 0 0 .68-.338.155 1.043 0 0 1.557.025-.856 1.405 0 0-.133-.022-.238-.552 0 0-.366 1.275-1.114 1.728 0 0 .175.509-.38.743 0 0-.3.789.415.789 0 0 .619-1.896 1.795-.404 0 0 .224-.085-.126-.831 0 0 .618.237.857 1.214 0 0 .382-.066.443-.916 0 0 .479-1.086 1.258.193 0 0-1.034-.3-1.303.744 0 0 .49-.214.794.085 0 0 .03.487-.281.675.134.254.28.497.485.703a.336.336 0 01.058.422c.55.942 1.567 2.196 2.279.194 0 0-.953.54-1.271-.951 0 0 1.922.245 2.808 2.173l.747 15.71-14.95-4.192.225-2.218c.31.796.674 1.12.674 1.12-.422-3.462 2.075-5.68 2.075-5.68.486-2.375-.748-3.442-1.892-3.922l.587-5.811c.236-.293.375-.489.375-.489a19.08 19.08 0 00-.247-.782l.57-5.638c.478.583.533 1.112.399 1.594-.616 2.214.176 2.893.176 2.893.48-1.87 2.13-2.169 2.13-2.169-.094-1.749.922-3.737.922-3.737-1.105-1.898-2.685-.618-3.513.288l.064-.637a19.4 19.4 0 00.538-.727s-.158-.109-.446-.189l.505-4.99 10.263 4.253.072.03.1 2.157zm-11.687-1.526c-.511.024-1.166.2-1.936.733 0 0-.366 3.361 1.735 1.254l-.235 2.326c-.274-.918-.925-1.237-.925-1.237-.637.385-.574.895-.574.895.579.087.932.783 1.14 1.436a.872.872 0 01-.663.418s.402.605.792.774l-.043.417c-.907-1.36-1.3 1.373-1.3 1.373-2.243-2.5.596-3.751.596-3.751-1.738-.734-2.543-2.839-2.543-2.839-.085 1.308-.594 1.25-.594 1.25-3.982-2.328-4.7 1.421-4.7 1.421.633 1.986-.723 2.213-.723 2.213 1.313.227 1.99-1.59 1.99-1.59 2.714 1.363 1.273 6.248 1.273 6.248 1.058.622 1.355 2.669 1.355 2.669.737.224 1.493.675 2.022 1.033.103-.093.209-.18.32-.262-1.238-.875-1.24-2.29-1.24-2.29 1.123 0 2.317-.968 3.178-1.858l-.465 4.608a5.763 5.763 0 00-.635-.123c-.2.096-.387.216-.56.356l.092.071c-1.248 2.398.44 3.36.72 3.498l-.717 7.088-9.927.776L9.64 7.412l9.764-.575-.508 5.028zm-2.005 27.317l15.119 4.24.068 1.418-15.373-3.826.186-1.832zM30.365 8.8l.057 1.193-10.157-4.21.13-1.294 9.713 4.2.256.111zM7.416 5.164l12.237-.806-.135 1.346-10.897.64L5.069 40l11.074-.868-.184 1.821-12.76 1.085L7.417 5.165z"/><path d="M24.047 27.463s1.591.297.954 3.364c0 0 .255 2.39 1.65 2.172 0 0 .381-3.449 2.161-6.091 0 0-.722.718-1.54-1.665-.123.09-.291.112-.432-.028-.352-.352-.565-.795-.795-1.24a.372.372 0 01-.038-.208c-1.158-.432-3.503-.866-3.835 2.544 0 0 .444 2.348 1.875 1.152zm-.73-7.967c.11 1.536.316 2.003.585 1.364.27-.633-.585-1.364-.585-1.364zm-.48 1.45s.448-.066.32-.63c0 0-.32.034-.32.63zm-.173-3.088s-1.129 0-.73.577c.397.575.73-.577.73-.577zm5.641 13.993s.345-.703.334-1.788c0 0-1.098 1.254-.334 1.788zm7.114-4.409s-.794.726-.649 1.386c.143.663.84-.13.65-1.386zm3.18 2.346c.349-.61-1.91-1.367-1.91-1.367.446.662 1.593 1.911 1.91 1.367zm-2.527.13c.53-.907-1.605-.473-1.605-.473s1.399.832 1.605.473zm.84.19s-.428.956-2.017 1.358c0 0 .335.769 0 2.219 0 0 1.604-2.046 2.528.913 0 0 .792.43 1.348-2.249 0 0-.666-.965-.889-2.338.001 0-.22 1.758-.97.096zm.313-8.726a.737.737 0 01.18-.115c-.778-1.258-.494.555-.494.555.05-.12.11-.21.17-.288.042.537-.087 1.337-.926 2.098 0 0 1.798-.678 1.07-2.25zm-13.726-9.416c.392-.92-.84-1.966-.84-1.966.158 2.21.45 2.885.84 1.966zm-1.533.121s.638-.095.457-.903c0 0-.457.046-.457.903z"/></svg><svg viewBox="0 0 48 48" id="services_icon_three" xmlns="http://www.w3.org/2000/svg"><path d="M24.56 24.009c-1.24 0-1.637.715-1.252 1.771.136.468.512 1.649.886 2.655.468 1.26 1.144 1.583 2.262 1.583h2.559c1.238 0 1.414-.87 1.15-1.582l-.249-.675c-.258-.697-.58-1.571-.848-2.27-.366-.954-1.077-1.482-2.193-1.482H24.56z"/><path d="M39.697 7.254c.015.205.15.573.414.66a4.51 4.51 0 013.31 5.541.197.197 0 01-.021.082l-.008.021a4.544 4.544 0 01-.036.116c-.075.26-.135.615.12.88a4.508 4.508 0 01-2.862 7.963h-1.608V25.5H42c1.65 0 3 1.335 3 2.997v11.991A4.527 4.527 0 0140.485 45H7.515A4.518 4.518 0 013 40.488V28.497A2.999 2.999 0 016 25.5h5.22c.97-2.456 1.74-4.398 1.851-4.665l.042-.104c.122-.298.277-.678.508-.967a1.643 1.643 0 011.361-.628h10.66a4.52 4.52 0 011.4-4.523c.15-.183.21-.44.118-.655a.22.22 0 01-.015-.049 4.508 4.508 0 013.305-6.027c.168-.08.215-.249.24-.429a4.508 4.508 0 019.007-.199zM14.704 24.405a2196.653 2196.653 0 01-5.157 14.001c-.136.361-.33.566-.41.623h5.638V24.193l-.003-.01-.066.222h-.002zm4.851 11.574c.835 2.02 1.27 3 2.846 3.051h16.296c1.095 0 1.572-.891 1.047-2.229l-.487-1.224-.006-.017v-.001c-.567-1.416-1.132-2.832-1.695-4.248l-.122-.312-.129-.324-.594-1.5-.271-.684h.009L34.1 22.515h-.008L34 22.272l-.407-1.053-.123-.312a.789.789 0 01-.02-.06l-.029-.075-.053-.138H20.416l.082.012h-4.942c-.783 0-1.08.744-1.26 1.192l-.025.068c-.178.438-.119.623 0 .9.093.222.62 1.572.874 2.22h-.008a2383.29 2383.29 0 004.418 10.953h.002zm17.951-8.896v-4.568h-1.794l1.794 4.566v.002z"/><path d="M12.564 8.28a4.945 4.945 0 013.623-1.491c2.445 0 5.322 1.899 5.322 5.06 0 2.968-2.028 5.461-5.01 5.461h-6.051c-1.39 0-2.544-.36-3.36-1.08-.827-.73-1.215-1.754-1.215-2.882 0-2.22 1.645-3.95 3.663-4.057a2.806 2.806 0 013.03-1.011h-.002zm3.623.009c-1.772 0-2.7 1.089-3.13 1.773-.26.413-.57.809-1.027.981-.468.18-.903.057-1.215-.06a3.725 3.725 0 01-.247-.072 2.33 2.33 0 00-.834-.124c-1.229 0-2.361 1.046-2.361 2.561 0 .774.255 1.358.708 1.758.463.409 1.22.706 2.367.706H16.5c1.994 0 3.51-1.653 3.51-3.963 0-2.12-1.975-3.56-3.822-3.56h-.001z"/></svg><svg viewBox="0 0 48 48" id="services_icon_two" xmlns="http://www.w3.org/2000/svg"><path d="M13.5 4A1.5 1.5 0 0012 5.5v14a11.502 11.502 0 0010 11.402v10.114L17.506 41a1.5 1.5 0 10-.012 3l6 .022h.01l7-.022a1.5 1.5 0 00-.008-3L25 41.018V30.912A12.502 12.502 0 0036 18.5v-13A1.5 1.5 0 0034.5 4h-21zM15 14V7h18v7H15zm16.366 5.414a7.454 7.454 0 01-2.318 4.132c-.988.9-2.2 1.52-3.508 1.796a1 1 0 11-.41-1.958 5.47 5.47 0 002.572-1.316 5.526 5.526 0 001.7-3.03 1 1 0 011.964.376z"/></svg><svg viewBox="0 0 24 20" id="twitter" xmlns="http://www.w3.org/2000/svg"><path d="M24 2.96a10.3 10.3 0 01-2.827.733 4.726 4.726 0 002.164-2.578c-.966.543-2.023.925-3.126 1.13A5.017 5.017 0 0017.416.833a5.171 5.171 0 00-3.125.49 4.775 4.775 0 00-2.164 2.189 4.43 4.43 0 00-.307 2.983A14.612 14.612 0 016.2 5.082a13.868 13.868 0 01-4.53-3.455 4.466 4.466 0 00-.666 2.342c0 .767.2 1.523.581 2.199a4.763 4.763 0 001.61 1.68 5.127 5.127 0 01-2.231-.584v.06c0 1.076.393 2.119 1.113 2.951a4.982 4.982 0 002.837 1.617 5.235 5.235 0 01-2.224.08 4.679 4.679 0 001.752 2.315 5.12 5.12 0 002.848.92A10.245 10.245 0 011.175 17.2c-.392 0-.785-.021-1.175-.065a14.51 14.51 0 007.547 2.093c9.058 0 14.01-7.098 14.01-13.254 0-.2-.005-.402-.014-.602a9.729 9.729 0 002.455-2.41L24 2.96z"/></svg><svg viewBox="0 0 24 24" id="vector" xmlns="http://www.w3.org/2000/svg"><path d="M10.264 20.526c2.277 0 4.488-.763 6.282-2.166l5.64 5.64L24 22.186l-5.64-5.64a10.202 10.202 0 002.167-6.283C20.527 4.604 15.923 0 10.263 0 4.605 0 0 4.604 0 10.263s4.604 10.263 10.264 10.263zm0-17.96c4.245 0 7.697 3.452 7.697 7.697s-3.452 7.697-7.697 7.697c-4.246 0-7.698-3.452-7.698-7.697s3.452-7.697 7.698-7.697z"/></svg><svg viewBox="0 0 128 128" id="wc_icon_one" xmlns="http://www.w3.org/2000/svg"><path d="M42.704 12.72a491.609 491.609 0 00-22.696 6.848 3.848 3.848 0 00-2.624 3.12c-4.432 33.256 5.808 57.52 18.024 73.504a85.797 85.797 0 0018.296 17.864c2.768 1.952 5.216 3.36 7.144 4.264.96.456 1.744.76 2.344.944.263.092.533.159.808.2.272-.044.54-.111.8-.2.608-.184 1.392-.488 2.352-.944 1.92-.904 4.376-2.32 7.144-4.264a85.797 85.797 0 0018.296-17.864c12.216-15.976 22.456-40.248 18.024-73.504a3.838 3.838 0 00-2.624-3.12c-5.208-1.704-14-4.48-22.696-6.84C76.416 10.32 68.248 8.536 64 8.536c-4.24 0-12.416 1.784-21.296 4.192v-.008zm-2.128-8.24C49.256 2.12 58.48 0 64 0s14.744 2.12 23.424 4.48c8.88 2.4 17.832 5.24 23.096 6.96a12.324 12.324 0 018.352 10.096c4.768 35.816-6.296 62.36-19.72 79.92a94.19 94.19 0 01-20.136 19.624 57.284 57.284 0 01-8.384 5C68.392 127.136 65.984 128 64 128s-4.384-.864-6.632-1.92a57.295 57.295 0 01-8.384-5 94.203 94.203 0 01-20.136-19.624C15.424 83.896 4.36 57.352 9.128 21.536A12.32 12.32 0 0117.48 11.44a499.692 499.692 0 0123.096-6.96z"/><path d="M86.832 41.168a4.002 4.002 0 010 5.664l-24 24a4 4 0 01-5.664 0l-12-12a4.006 4.006 0 015.664-5.664L60 62.344l21.168-21.176a4 4 0 015.664 0z"/></svg><svg viewBox="0 0 128 128" id="wc_icon_three" xmlns="http://www.w3.org/2000/svg"><path d="M106.336 42.667H112a10.669 10.669 0 0110.667 10.666v21.334A10.668 10.668 0 01112 85.333h-5.664A42.67 42.67 0 0164 122.667V112a31.997 31.997 0 0032-32V48a32 32 0 00-64 0v37.333H16A10.667 10.667 0 015.334 74.667V53.333A10.667 10.667 0 0116 42.667h5.664a42.672 42.672 0 0184.672 0zM16 53.333v21.334h5.334V53.333H16zm90.667 0v21.334H112V53.333h-5.333zm-65.28 30.854l5.653-9.046A31.85 31.85 0 0064 80a31.85 31.85 0 0016.96-4.859l5.654 9.046A42.47 42.47 0 0164 90.667a42.47 42.47 0 01-22.613-6.48z"/></svg><svg viewBox="0 0 128 128" id="wc_icon_two" xmlns="http://www.w3.org/2000/svg"><g clip-path="url(#wa)"><path fill-rule="evenodd" clip-rule="evenodd" d="M103.111 120.889a17.778 17.778 0 100-35.556 17.778 17.778 0 000 35.556zm0 7.111A24.886 24.886 0 00128 103.111a24.887 24.887 0 00-42.488-17.599A24.889 24.889 0 00103.111 128z"/><path fill-rule="evenodd" clip-rule="evenodd" d="M103.111 90.667a3.556 3.556 0 013.556 3.555v7.417l2.513 2.514a3.554 3.554 0 01-5.027 5.027l-4.598-4.597v-10.36a3.555 3.555 0 013.556-3.556zM28.444 60.444h-7.11v7.111h7.11v-7.11zm-7.11-7.11a7.111 7.111 0 00-7.112 7.11v7.111a7.111 7.111 0 007.111 7.112h7.111a7.111 7.111 0 007.112-7.112v-7.11a7.111 7.111 0 00-7.112-7.112h-7.11zm35.555 7.11h-7.111v7.111h7.11v-7.11zm-7.111-7.11a7.111 7.111 0 00-7.111 7.11v7.111a7.111 7.111 0 007.11 7.112h7.112a7.11 7.11 0 007.11-7.112v-7.11a7.111 7.111 0 00-7.11-7.112h-7.111zm35.555 7.11h-7.11v7.111h7.11v-7.11zm-7.11-7.11a7.11 7.11 0 00-7.112 7.11v7.111a7.111 7.111 0 007.111 7.112h7.111a7.111 7.111 0 007.111-7.112v-7.11a7.111 7.111 0 00-7.11-7.112h-7.112zm-49.78 35.554h-7.11V96h7.11v-7.111zm-7.11-7.111a7.111 7.111 0 00-7.112 7.11V96a7.11 7.11 0 007.111 7.111h7.111A7.11 7.11 0 0035.556 96v-7.111a7.111 7.111 0 00-7.112-7.111h-7.11zm35.555 7.11h-7.111V96h7.11v-7.111zm-7.111-7.11a7.111 7.111 0 00-7.111 7.11V96a7.11 7.11 0 007.11 7.111h7.112A7.11 7.11 0 0063.999 96v-7.111a7.111 7.111 0 00-7.11-7.111h-7.111z"/><path fill-rule="evenodd" clip-rule="evenodd" d="M7.111 21.333a3.555 3.555 0 013.556-3.555h17.777v-7.111H10.667A10.667 10.667 0 000 21.333v85.334a10.665 10.665 0 0010.667 10.666h72.017a24.787 24.787 0 01-3.43-7.111H10.666a3.554 3.554 0 01-3.556-3.555V21.333zm92.445 57.138a25.115 25.115 0 017.111 0V21.333A10.665 10.665 0 0096 10.667H85.333v7.11H96a3.556 3.556 0 013.556 3.556v57.138zm-64-60.693h37.557v-7.111H35.556v7.11z"/><path fill-rule="evenodd" clip-rule="evenodd" d="M106.667 42.667H7.111v-7.111h99.556v7.11z"/><path d="M21.334 3.556a3.556 3.556 0 117.11 0v17.777a3.556 3.556 0 11-7.11 0V3.556zm49.777 0a3.556 3.556 0 117.111 0v17.777a3.556 3.556 0 11-7.11 0V3.556z"/></g><defs><clipPath id="wa"><path d="M0 0h128v128H0z"/></clipPath></defs></svg></svg>