<svg width="24" height="24" viewBox="0 0 24 24" fill="none" xmlns="http://www.w3.org/2000/svg">
<path d="M3.00001 9.73725C2.99753 9.88928 3.04132 10.0385 3.12557 10.1651C3.20982 10.2916 3.33055 10.3896 3.47176 10.446L10.6725 13.3267L13.5533 20.5282C13.6089 20.6675 13.705 20.7869 13.8292 20.871C13.9534 20.9551 14.1 21.0001 14.25 21H14.262C14.4139 20.9976 14.5615 20.9491 14.6853 20.861C14.809 20.7729 14.9031 20.6493 14.955 20.5065L20.955 4.0065C21.0041 3.87227 21.0139 3.7268 20.9831 3.58722C20.9523 3.44764 20.8822 3.31977 20.7812 3.21866C20.6802 3.11755 20.5524 3.04741 20.4128 3.01651C20.2733 2.98561 20.1278 2.99524 19.9935 3.04425L3.49351 9.04425C3.35068 9.09632 3.22703 9.19053 3.13891 9.31441C3.05079 9.43828 3.00235 9.58599 3.00001 9.738V9.73725Z" fill="#3D3E48"/>
</svg>
